HIERARCHY
ROOT Hips
{
	OFFSET 0.00000 0.00000 0.00000
	CHANNELS 6 Xposition Yposition Zposition Yrotation Zrotation Xrotation 
	JOINT Lumbar
	{
		OFFSET 0 0 0
		CHANNELS 3 Zrotation Xrotation Yrotation
		JOINT Neck
		{
			OFFSET 0.00 0.2701 0.00
			CHANNELS 3 Zrotation Xrotation Yrotation
			End Site
			{
				OFFSET 0.00 0.1379 0.00
			}
		}
		JOINT RightShoulder
		{
			OFFSET 0.0119 0.2289 0.1181
			CHANNELS 3 Zrotation Xrotation Yrotation
			JOINT RightElbow
			{
				OFFSET 0.00 -0.1475 0.00
				CHANNELS 2 Zrotation Yrotation
				JOINT RightWrist
				{
					OFFSET 0.00 -0.1605 0.00
					CHANNELS 2 Zrotation Xrotation
					End Site
					{
						OFFSET 0.0040 -0.1068 0.0006
					}
				}
			}
		}
		JOINT LeftShoulder
		{
			OFFSET 0.0119 0.2289 -0.1181
			CHANNELS 3 Zrotation Xrotation Yrotation
			JOINT LeftElbow
			{
				OFFSET 0.00 -0.1475 0.00
				CHANNELS 2 Zrotation Yrotation
				JOINT LeftWrist
				{
					OFFSET 0.00 -0.1605 0.00
					CHANNELS 2 Zrotation Xrotation
					End Site
					{
						OFFSET 0.0040 -0.1068 -0.0006
					}
				}
			}
		}
	}
	JOINT RightHip
	{
		OFFSET 0.0316 -0.0424 0.0458
		CHANNELS 3 Zrotation Xrotation Yrotation
		JOINT RightKnee
		{
			OFFSET 0.00 -0.2438 0.00
			CHANNELS 1 Zrotation
			JOINT RightAnkle
			{
				OFFSET 0.00 -0.2449 0.00
				CHANNELS 3 Zrotation Xrotation Yrotation
				End Site
				{
					OFFSET 0.1237 -0.0542 0.0051
				}
			}
		}
	}
	JOINT LeftHip
	{
		OFFSET 0.0316 -0.0424 -0.0458
		CHANNELS 3 Zrotation Xrotation Yrotation
		JOINT LeftKnee
		{
			OFFSET 0.00 -0.2438 0.00
			CHANNELS 1 Zrotation
			JOINT LeftAnkle
			{
				OFFSET 0.00 -0.2449 0.00
				CHANNELS 3 Zrotation Xrotation Yrotation
				End Site
				{
					OFFSET 0.1237 -0.0542 -0.0051
				}
			}
		}
	}
}
MOTION
Frames: 11
Frame Time: 0.02
0.00058 -0.00011 -0.00018 -172.41253 -41.54067 -1.27218 47.82339 2.9731 -4.51439 7.15291 -0.96544 -0.36518 -13.11413 -10.9472 -4.60245 27.54713 91.07329 4.1913 0.99575 -27.74452 15.821 -9.5901 44.96334 -107.39759 14.97925 -1.65788 44.6611 0.95935 -5.10738 -19.43727 -6.08989 -3.43553 -2.39428 46.2323 0.35425 0.74818 -24.77034 -6.27598 3.7018 2.55572
0.00106 -6e-05 -9e-05 -172.24212 -41.48933 -1.26705 47.88113 2.92688 -4.4913 7.34875 -0.99494 -0.36567 -12.1923 -10.96453 -3.92585 27.69868 90.95461 4.21025 0.98058 -25.64225 15.70419 -9.7554 45.12616 -106.84027 14.63252 -1.63966 44.64092 0.93057 -5.33446 -19.42192 -6.0937 -3.43517 -2.39414 46.24111 0.40732 0.94794 -24.77098 -6.27119 3.67106 2.53464
0.00154 -1e-05 1e-05 -172.07213 -41.43806 -1.26194 47.93872 2.88076 -4.46829 7.54406 -1.02434 -0.36616 -11.27261 -10.98176 -3.25059 27.85011 90.8363 4.22924 0.96544 -23.54475 15.58748 -9.9205 45.28869 -106.28425 14.28655 -1.62148 44.62079 0.90186 -5.56097 -19.4066 -6.09752 -3.43482 -2.39399 46.24989 0.46025 1.14723 -24.77161 -6.26641 3.64037 2.51359
0.00201 4e-05 0.0001 -171.90222 -41.38686 -1.25682 47.99629 2.83467 -4.44527 7.73932 -1.05375 -0.36666 -10.35348 -10.99903 -2.57593 28.00125 90.71796 4.24813 0.95031 -21.44863 15.47098 -10.08535 45.45104 -105.72859 13.94083 -1.60332 44.60067 0.87316 -5.78738 -19.3913 -6.10132 -3.43446 -2.39385 46.25868 0.51316 1.3464 -24.77225 -6.26162 3.60972 2.49256
0.00249 9e-05 0.0002 -171.73194 -41.33561 -1.25169 48.05399 2.78848 -4.4222 7.93507 -1.08324 -0.36715 -9.43253 -11.01641 -1.90025 28.15237 90.59933 4.26698 0.93517 -19.34854 15.3545 -10.25029 45.61358 -105.17177 13.59448 -1.58514 44.58051 0.84441 -6.01429 -19.37598 -6.10513 -3.43409 -2.3937 46.26748 0.56619 1.54596 -24.77289 -6.25683 3.57904 2.47151
0.00297 0.00014 0.00029 -171.56259 -41.28431 -1.24663 48.11132 2.74254 -4.3993 8.12941 -1.11246 -0.36764 -8.51559 -11.03332 -1.22595 28.30443 90.48174 4.28627 0.92003 -17.25668 15.23731 -10.41569 45.7761 -104.61748 13.24932 -1.56696 44.56042 0.81576 -6.23992 -19.36067 -6.10895 -3.43374 -2.39356 46.27622 0.61891 1.74468 -24.7735 -6.25207 3.54833 2.45048
0.00344 0.00019 0.00038 -171.39154 -41.23317 -1.24141 48.16935 2.69615 -4.37606 8.32641 -1.14219 -0.36814 -7.59145 -11.05118 -0.54955 28.45444 90.36197 4.30458 0.90489 -15.15029 15.12165 -10.57999 45.93848 -104.05874 12.90212 -1.54879 44.54023 0.78695 -6.46795 -19.34535 -6.11273 -3.43337 -2.3934 46.28509 0.67219 1.94487 -24.77417 -6.24725 3.51771 2.42942
0.00392 0.00024 0.00048 -171.22206 -41.18187 -1.23635 48.22674 2.65017 -4.35318 8.52089 -1.17145 -0.36863 -6.67421 -11.06813 0.12482 28.60635 90.24462 4.3239 0.88978 -13.05778 15.00461 -10.74531 46.10098 -103.50405 12.55685 -1.53062 44.52011 0.7583 -6.69363 -19.33004 -6.11655 -3.43302 -2.39326 46.29382 0.72496 2.14373 -24.77479 -6.24249 3.487 2.40839
0.0044 0.00029 0.00057 -171.05438 -41.13038 -1.23146 48.28336 2.60466 -4.33053 8.71267 -1.20016 -0.36912 -5.76387 -11.08409 0.79751 28.76065 90.12853 4.34407 0.87458 -10.97913 14.88568 -10.91199 46.26375 -102.95422 12.21358 -1.51242 44.50012 0.72976 -6.91708 -19.31474 -6.12044 -3.43268 -2.39314 46.30244 0.77712 2.34096 -24.77535 -6.23779 3.45618 2.38738
0.00486 0.00034 0.00067 -170.87598 -41.07999 -1.22551 48.34444 2.55634 -4.30595 8.92115 -1.2321 -0.36963 -4.80918 -11.10609 1.48231 28.90143 90.00008 4.35821 0.85952 -8.81133 14.77703 -11.07119 46.42535 -102.37611 11.85768 -1.49429 44.47951 0.70031 -7.15533 -19.29938 -6.12398 -3.43224 -2.39289 46.31189 0.83282 2.54758 -24.77623 -6.23269 3.426 2.36621
0.00536 0.00039 0.00076 -170.72047 -41.02729 -1.22183 48.39608 2.51401 -4.28583 9.0936 -1.25719 -0.3701 -3.95116 -11.11515 2.13988 29.07055 89.901 4.38579 0.84439 -6.83797 14.64708 -11.24587 46.58916 -101.85796 11.5292 -1.47608 44.46016 0.67296 -7.36105 -19.28416 -6.12825 -3.43204 -2.39295 46.31948 0.88101 2.73435 -24.77645 -6.22845 3.39448 2.3454
